<?xml version="1.0" encoding="UTF-8" standalone="no"?>
<!-- Created with Inkscape (http://www.inkscape.org/) -->

<svg
   xmlns:dc="http://purl.org/dc/elements/1.1/"
   xmlns:cc="http://creativecommons.org/ns#"
   xmlns:rdf="http://www.w3.org/1999/02/22-rdf-syntax-ns#"
   xmlns:svg="http://www.w3.org/2000/svg"
   xmlns="http://www.w3.org/2000/svg"
   xmlns:sodipodi="http://sodipodi.sourceforge.net/DTD/sodipodi-0.dtd"
   xmlns:inkscape="http://www.inkscape.org/namespaces/inkscape"
   width="42.042294mm"
   height="49.29187mm"
   viewBox="0 0 42.042293 49.29187"
   version="1.1"
   id="svg8"
   inkscape:version="0.92.4 (f8dce91, 2019-08-02)"
   sodipodi:docname="android-icon.svg">
  <defs
     id="defs2" />
  <sodipodi:namedview
     id="base"
     pagecolor="#ffffff"
     bordercolor="#666666"
     borderopacity="1.0"
     inkscape:pageopacity="0.0"
     inkscape:pageshadow="2"
     inkscape:zoom="0.98994949"
     inkscape:cx="124.25173"
     inkscape:cy="341.68437"
     inkscape:document-units="mm"
     inkscape:current-layer="layer1"
     showgrid="false"
     fit-margin-top="0"
     fit-margin-left="0"
     fit-margin-right="0"
     fit-margin-bottom="0"
     inkscape:window-width="1853"
     inkscape:window-height="1025"
     inkscape:window-x="67"
     inkscape:window-y="27"
     inkscape:window-maximized="1" />
  <metadata
     id="metadata5">
    <rdf:RDF>
      <cc:Work
         rdf:about="">
        <dc:format>image/svg+xml</dc:format>
        <dc:type
           rdf:resource="http://purl.org/dc/dcmitype/StillImage" />
        <dc:title></dc:title>
      </cc:Work>
    </rdf:RDF>
  </metadata>
  <g
     inkscape:label="Capa 1"
     inkscape:groupmode="layer"
     id="layer1"
     transform="translate(-55.857516,-56.420051)">
    <path
       style="fill:#ffffff;stroke-width:0.26458332"
       inkscape:connector-curvature="0"
       class="st2"
       d="m 97.899808,75.099631 v 12.858751 c 0,0.926039 -0.291042,1.640419 -0.846672,2.196039 -0.55562,0.55563 -1.27,0.846672 -2.169578,0.846672 -0.899581,0 -1.613961,-0.291042 -2.196042,-0.846672 -0.582089,-0.55562 -0.87313,-1.296459 -0.87313,-2.196039 V 75.099631 c 0,-0.84666 0.291041,-1.56104 0.87313,-2.16958 0.582081,-0.58208 1.296461,-0.87313 2.196042,-0.87313 0.899578,0 1.613958,0.29105 2.169578,0.87313 0.55563,0.60854 0.846672,1.32292 0.846672,2.16958 z"
       id="path821" />
    <path
       style="fill:#ffffff;stroke-width:0.26458332"
       inkscape:connector-curvature="0"
       class="st2"
       d="M 90.676677,71.580671 H 63.107096 c 0,-2.38125 0.635,-4.55083 1.93146,-6.50875 1.29646,-1.95791 3.01625,-3.4925 5.15937,-4.60375 -1.4552,-2.4077 -2.16958,-3.65125 -2.16958,-3.70416 0,-0.23813 0.13229,-0.34396 0.44979,-0.34396 0.13229,0 0.97896,1.27 2.46063,3.81 1.82562,-0.84667 3.81,-1.29646 5.92666,-1.29646 1.98438,0 3.96875,0.42333 6.006051,1.29646 1.4552,-2.54 2.24895,-3.81 2.434159,-3.81 0.264591,0 0.39688,0.13229 0.39688,0.44979 l -0.0529,0.18521 -2.037289,3.62479 c 2.116669,1.03188 3.81,2.51354 5.106461,4.49792 1.322909,1.87854 1.957909,4.04812 1.957909,6.40291 z m -7.540622,-4.9477 c 0.820211,0 1.243542,-0.42334 1.243542,-1.24355 0,-0.29104 -0.132292,-0.55562 -0.37042,-0.76729 -0.26458,-0.21166 -0.529161,-0.34396 -0.873122,-0.34396 -0.264578,0 -0.502708,0.10584 -0.714378,0.34396 -0.211661,0.21167 -0.317501,0.47625 -0.317501,0.76729 0,0.82021 0.34396,1.24355 1.031879,1.24355 z m -11.350629,-1.24355 c 0,-0.29104 -0.13229,-0.55562 -0.34395,-0.76729 -0.23813,-0.21166 -0.52917,-0.34396 -0.84667,-0.34396 -0.26458,0 -0.50271,0.10584 -0.74083,0.34396 -0.23813,0.21167 -0.34396,0.47625 -0.34396,0.76729 0,0.39688 0.13229,0.68792 0.34396,0.89959 0.23812,0.21166 0.47625,0.34396 0.74083,0.34396 0.3175,0 0.60854,-0.10584 0.84667,-0.34396 0.21166,-0.21167 0.34395,-0.52917 0.34395,-0.89959 z"
       id="path827" />
    <path
       style="fill:#ffffff;stroke-width:0.26458332"
       inkscape:connector-curvature="0"
       class="st2"
       d="m 90.597308,72.665471 v 19.923122 c 0,0.846669 -0.3175,1.613958 -0.9525,2.275419 -0.635,0.66145 -1.402292,1.005409 -2.328331,1.005409 h -2.116672 v 6.614589 c 0,0.9525 -0.3175,1.71979 -0.926039,2.32833 -0.608539,0.60854 -1.34938,0.89958 -2.16959,0.89958 -0.92604,0 -1.66687,-0.29104 -2.2225,-0.89958 -0.58208,-0.60854 -0.87312,-1.37583 -0.87312,-2.32833 v -6.614589 h -4.23333 v 6.614589 c 0,0.9525 -0.29105,1.71979 -0.87313,2.32833 -0.58208,0.60854 -1.29646,0.89958 -2.11667,0.89958 -0.8202,0 -1.53458,-0.29104 -2.14312,-0.89958 -0.60854,-0.60854 -0.89958,-1.37583 -0.89958,-2.32833 v -6.614589 h -2.24896 c -0.92604,0 -1.69334,-0.343959 -2.32834,-1.005409 -0.635,-0.661461 -0.9525,-1.42875 -0.9525,-2.275419 V 72.665471 Z"
       id="path829" />
    <path
       style="fill:#ffffff;stroke-width:0.26458332"
       inkscape:connector-curvature="0"
       class="st2"
       d="m 61.969386,75.099631 v 12.858751 c 0,0.926039 -0.29104,1.640419 -0.84666,2.196039 -0.55563,0.55563 -1.27,0.846672 -2.16959,0.846672 -0.84666,0 -1.5875,-0.291042 -2.19604,-0.846672 -0.60854,-0.55562 -0.89958,-1.296459 -0.89958,-2.196039 V 75.099631 c 0,-0.84666 0.29104,-1.56104 0.89958,-2.16958 0.60854,-0.58208 1.32292,-0.87313 2.19604,-0.87313 0.87313,0 1.61396,0.29105 2.16959,0.87313 0.55562,0.60854 0.84666,1.32292 0.84666,2.16958 z"
       id="path855" />
  </g>
</svg>
