<?xml version="1.0" encoding="UTF-8" standalone="no"?>
<!-- Created with Inkscape (http://www.inkscape.org/) -->

<svg
   xmlns:dc="http://purl.org/dc/elements/1.1/"
   xmlns:cc="http://creativecommons.org/ns#"
   xmlns:rdf="http://www.w3.org/1999/02/22-rdf-syntax-ns#"
   xmlns:svg="http://www.w3.org/2000/svg"
   xmlns="http://www.w3.org/2000/svg"
   xmlns:sodipodi="http://sodipodi.sourceforge.net/DTD/sodipodi-0.dtd"
   xmlns:inkscape="http://www.inkscape.org/namespaces/inkscape"
   width="39.713963mm"
   height="47.04287mm"
   viewBox="0 0 39.713962 47.042869"
   version="1.1"
   id="svg8"
   inkscape:version="0.92.4 (f8dce91, 2019-08-02)"
   sodipodi:docname="linux-icon.svg">
  <defs
     id="defs2" />
  <sodipodi:namedview
     id="base"
     pagecolor="#ffffff"
     bordercolor="#666666"
     borderopacity="1.0"
     inkscape:pageopacity="0.0"
     inkscape:pageshadow="2"
     inkscape:zoom="0.98994949"
     inkscape:cx="77.073277"
     inkscape:cy="305.32546"
     inkscape:document-units="mm"
     inkscape:current-layer="layer1"
     showgrid="false"
     fit-margin-top="0"
     fit-margin-left="0"
     fit-margin-right="0"
     fit-margin-bottom="0"
     inkscape:window-width="1853"
     inkscape:window-height="1025"
     inkscape:window-x="67"
     inkscape:window-y="27"
     inkscape:window-maximized="1" />
  <metadata
     id="metadata5">
    <rdf:RDF>
      <cc:Work
         rdf:about="">
        <dc:format>image/svg+xml</dc:format>
        <dc:type
           rdf:resource="http://purl.org/dc/dcmitype/StillImage" />
        <dc:title></dc:title>
      </cc:Work>
    </rdf:RDF>
  </metadata>
  <g
     inkscape:label="Capa 1"
     inkscape:groupmode="layer"
     id="layer1"
     transform="translate(-45.529091,-66.899011)">
    <path
       inkscape:connector-curvature="0"
       d="m 85.243052,107.195 c 0,0.0794 -0.0265,0.21167 -0.0794,0.39688 -0.0529,0.21166 -0.396881,0.55562 -0.978959,1.00541 -0.423331,0.29104 -0.9525,0.58209 -1.5875,0.87313 l -0.87313,0.44979 c -1.74625,0.82021 -3.386661,1.98437 -4.947701,3.43958 -0.34396,0.37042 -1.058341,0.58209 -2.116669,0.58209 -1.613961,0 -2.672291,-0.58209 -3.148541,-1.7198 -0.23813,-0.44979 -0.84667,-0.68791 -1.85209,-0.71437 -0.74083,-0.0265 -1.87854,-0.0529 -3.41312,-0.0529 -2.51354,0 -4.18042,0.18521 -5.00063,0.52917 l -0.3175,-0.58209 c 0.4498,-0.23812 0.66146,-0.58208 0.66146,-1.05833 0,-0.39688 -0.15875,-0.84667 -0.44979,-1.42875 -0.0794,-0.0794 -0.18521,-0.21167 -0.3175,-0.34396 -0.13229,-0.15875 -0.21167,-0.26458 -0.23812,-0.34396 -0.0529,-0.0794 -0.0794,-0.13229 -0.0794,-0.15875 0.10583,-0.21166 0.29104,-0.3175 0.52917,-0.3175 0.13229,0 0.21166,0.0265 0.26458,0.0794 0.66146,0.68792 1.66688,1.03188 3.04271,1.03188 0.39687,0 0.87312,0 1.37583,0 2.30188,-0.29104 3.83646,-1.08479 4.60375,-2.35479 0.3175,-0.55563 0.58209,-0.84667 0.79375,-0.84667 0.23813,0 0.34396,0.34396 0.34396,1.05833 0,0.60854 -0.21167,1.53459 -0.60854,2.77813 -0.0794,0.3175 -0.13229,0.58208 -0.13229,0.79375 0,0.0529 0.0265,0.15875 0.0529,0.34396 0.0265,0.15875 0.23813,0.23812 0.60855,0.23812 0.0265,-0.3175 0.13229,-1.00542 0.34395,-2.03729 0.26459,-1.24354 0.396879,-2.09021 0.396879,-2.56646 0,-0.34396 -0.0794,-0.89958 -0.211669,-1.69333 -0.10583,-0.79375 -0.18521,-1.56104 -0.18521,-2.30188 h 0.449801 c 0,0.55563 0.105828,1.13771 0.3175,1.77271 0.211659,0.60854 0.3175,1.34938 0.3175,2.2225 0,0.82021 -0.0794,1.77271 -0.211672,2.88396 -0.0529,0.29104 -0.0794,0.58208 -0.0794,0.84667 0,0.74083 0.185211,1.32291 0.529169,1.71979 0.47625,0.60854 1.058331,0.92604 1.772711,0.92604 0.0529,0 0.291039,-0.0265 0.71437,-0.0529 0.423338,-0.0265 0.978961,-0.34396 1.66688,-0.92604 1.03187,-0.82021 1.799169,-1.40229 2.328331,-1.69334 0.529169,-0.3175 1.42875,-0.68791 2.69875,-1.1377 1.640419,-0.52917 2.487088,-1.0848 2.487088,-1.69334 0,-0.0265 -0.0265,-0.13229 -0.0794,-0.3175 -0.0529,-0.18521 -0.238119,-0.37041 -0.58208,-0.60854 -0.343961,-0.21167 -0.79375,-0.42333 -1.375842,-0.60854 -0.582078,-0.18521 -1.005408,-0.60854 -1.27,-1.21708 -0.264578,-0.60855 -0.396869,-1.19063 -0.396869,-1.7198 0,-0.0794 0,-0.29104 0.0265,-0.635 0,-0.34395 0.132289,-0.635 0.370409,-0.87312 0.0265,0.55562 0.105841,1.08479 0.211672,1.53458 0.211669,0.79375 0.529169,1.37584 0.978958,1.77271 0.291042,0.3175 0.661461,0.60854 1.058331,0.84667 0.582091,0.3175 1.005419,0.60854 1.217091,0.87312 0.264578,0.37042 0.370409,0.66146 0.370409,1.00542 z"
       id="path823"
       style="stroke-width:0.26458332" />
    <path
       inkscape:connector-curvature="0"
       d="m 81.327221,97.855209 c 0,0.15875 -0.0265,0.423333 -0.0529,0.820208 -0.0265,0.396875 -0.132289,0.767292 -0.3175,1.11125 -0.185208,0.343963 -0.343958,0.529163 -0.47625,0.582083 -0.15875,0.0529 -0.343958,0.21167 -0.608539,0.47625 -0.26458,0.29104 -0.502711,0.58208 -0.74083,0.89958 -0.21167,0.3175 -0.555631,0.60855 -1.00542,0.87313 -0.449789,0.23812 -0.9525,0.37042 -1.481669,0.37042 -0.34395,0 -0.687911,-0.0265 -1.005411,-0.10584 -0.3175,-0.0794 -0.608539,-0.34396 -0.873131,-0.76729 -0.238119,-0.26458 -0.423328,-0.60854 -0.582078,-1.05833 -0.3175,-0.50271 -0.608541,-0.74084 -0.87313,-0.74084 -0.0529,0 -0.1852,0.0265 -0.39687,0.0794 -0.211672,0.0529 -0.39688,0.47625 -0.58208,1.24355 -0.0794,0.23812 -0.1323,0.47625 -0.1323,0.74083 h -0.449791 c 0,-0.0265 0,-0.0265 0,-0.0529 0,-0.0529 0,-0.29104 0.0265,-0.74083 0,-0.42334 0.211669,-0.87313 0.55563,-1.29646 0.291039,-0.317502 0.740831,-0.476252 1.322909,-0.476252 0.0265,-0.608542 0.343961,-1.084792 0.926042,-1.375834 0.264588,-0.132291 0.529169,-0.238125 0.820208,-0.291041 0.185211,-0.05292 0.39688,-0.05292 0.608542,-0.05292 0.846669,0 1.534588,0.211667 2.037299,0.661459 0,-0.291042 -0.47625,-0.661459 -1.402299,-1.058334 0.0265,-0.291041 0.0794,-0.555625 0.15875,-0.767291 0.0794,-0.211667 0.132299,-0.449792 0.185208,-0.661459 0.0529,-0.211666 0.0794,-0.396875 0.0794,-0.502708 0,-0.105833 0,-0.264583 0,-0.449792 0,-0.05292 0,-0.15875 0,-0.343958 0,-0.15875 0,-0.291042 0,-0.370417 0,-0.07937 -0.0265,-0.291041 -0.105842,-0.582083 -0.0794,-0.291042 -0.105828,-0.47625 -0.132289,-0.529167 -0.0265,-0.05292 -0.0529,-0.264583 -0.10583,-0.635 -0.0529,-0.370417 -0.105828,-0.608542 -0.132289,-0.740833 -0.185211,-0.820209 -0.582092,-1.719792 -1.217092,-2.672292 -0.635,-0.9525 -1.27,-1.613958 -1.931447,-1.957917 0.449789,0.343959 0.9525,1.084792 1.534578,2.169584 1.084791,2.090208 1.640422,3.942292 1.640422,5.55625 0,0.582083 -0.0794,1.137708 -0.264592,1.666875 -0.132289,0.582083 -0.449789,0.926042 -0.9525,1.084792 -0.15875,0.05292 -0.343961,0.07937 -0.555619,0.07937 -0.423342,0 -0.68792,-0.185208 -0.820211,-0.555625 -0.132289,-0.370416 -0.21167,-1.084791 -0.21167,-2.143125 0,-1.058333 -0.10583,-2.010833 -0.3175,-2.831041 -0.449789,-1.984375 -1.005411,-3.307292 -1.71979,-4.021667 l -0.21167,-0.132292 c -0.47625,-2.116666 -0.97895,-3.4925 -1.53458,-4.153958 -0.71437,-0.820208 -1.05833,-1.561042 -1.05833,-2.2225 0,-0.3175 0.0529,-0.714375 0.18521,-1.137708 0.0265,-0.07937 0.0529,-0.185209 0.0794,-0.264584 0.0794,-0.238125 0.10583,-0.449791 0.10583,-0.635 0,-0.15875 -0.0265,-0.3175 -0.10583,-0.529166 -0.0794,-0.211667 -0.44979,-0.370417 -1.08479,-0.529167 -0.26458,-0.05292 -0.66146,-0.211667 -1.16417,-0.47625 -0.50271,-0.264583 -0.82021,-0.396875 -0.9525,-0.396875 -0.10583,-0.02646 -0.18521,-0.07937 -0.23812,-0.211667 -0.0794,-0.15875 -0.10584,-0.396875 -0.10584,-0.740833 0,-0.370417 0.10584,-0.767292 0.29105,-1.164167 0.1852,-0.396875 0.55562,-0.608541 1.08479,-0.608541 0.55562,0 0.9525,0.238125 1.19062,0.740833 0.10584,0.396875 0.18521,0.714375 0.18521,1.005417 0,0.185208 -0.0265,0.343958 -0.0794,0.47625 -0.0794,0.238125 -0.1323,0.370416 -0.1323,0.449791 0,0.264584 0.1323,0.396875 0.39688,0.396875 0.15875,0 0.3175,-0.02646 0.52917,-0.105833 0.21166,-0.07937 0.3175,-0.396875 0.3175,-0.9525 0,-1.481667 -0.3175,-2.487083 -0.97896,-3.01625 -0.34396,-0.343958 -0.79375,-0.555625 -1.27,-0.608541 -1.5875,0.105833 -2.38125,0.978958 -2.38125,2.592916 0,0.264583 0.0265,0.555625 0.0794,0.873125 0,0.238125 -0.0265,0.343958 -0.0529,0.343958 -0.0265,-0.02646 -0.0529,-0.02646 -0.0794,-0.05292 -0.21167,-0.105834 -0.58208,-0.15875 -1.11125,-0.15875 -0.18521,0 -0.34396,0 -0.47625,0 h -0.13229 c -0.10583,0 -0.21167,-0.05292 -0.26458,-0.132292 v -0.264563 c 0,-0.846667 -0.15875,-1.561042 -0.4498,-2.143125 -0.29104,-0.582083 -0.68791,-0.873125 -1.1377,-0.873125 -0.4498,0 -0.79375,0.238125 -1.05834,0.740833 -0.29104,0.582083 -0.44979,1.164167 -0.44979,1.693333 0,0.238125 0.0265,0.529167 0.10583,0.873125 0.0794,0.343959 0.18521,0.661459 0.3175,0.899584 0.1323,0.238125 0.26459,0.370416 0.37042,0.370416 0.18521,0 0.34396,-0.105833 0.47625,-0.343958 l 0.0529,-0.185208 c 0,-0.02646 -0.0794,-0.05292 -0.21167,-0.05292 h -0.0529 c -0.0794,0 -0.21166,-0.132292 -0.37041,-0.396875 -0.15875,-0.264583 -0.23813,-0.582083 -0.23813,-0.926042 0,-0.820208 0.34396,-1.243541 1.05834,-1.243541 0.3175,0 0.58208,0.185208 0.76729,0.529166 0.18521,0.343959 0.29104,0.687917 0.29104,1.005417 -0.0265,0.3175 -0.0529,0.502708 -0.0794,0.582083 -0.39687,0.291042 -0.66145,0.555625 -0.8202,0.767292 -0.15875,0.211667 -0.39688,0.423333 -0.74084,0.608542 -0.3175,0.185208 -0.47625,0.291041 -0.47625,0.3175 -0.29104,0.291041 -0.44979,0.582083 -0.44979,0.873125 0,0.15875 0.0529,0.238125 0.18521,0.264583 0.50271,0.3175 0.87312,0.661458 1.11125,1.031875 0.23812,0.370417 0.79375,0.555625 1.64042,0.555625 0.76729,0 1.5875,-0.132292 2.43416,-0.396875 0.0265,-0.02646 0.23813,-0.07937 0.60854,-0.185208 0.37042,-0.07938 0.68792,-0.185209 0.89959,-0.264584 0.21166,-0.07937 0.47625,-0.211666 0.74083,-0.370416 0.29104,-0.15875 0.47625,-0.3175 0.55563,-0.47625 0.0794,-0.132292 0.21166,-0.211667 0.34395,-0.211667 0.0265,0 0.10584,0.02646 0.21167,0.07937 0.10583,0.05292 0.15875,0.132292 0.15875,0.238125 0,0.07937 0,0.132292 -0.0265,0.185208 -0.0794,0.15875 -0.23812,0.264584 -0.50271,0.3175 -0.635,0.238125 -1.53458,0.608542 -2.69875,1.11125 -1.00541,0.449792 -1.85208,0.661459 -2.51354,0.661459 -0.34396,0 -0.82021,-0.05292 -1.42875,-0.132292 l -0.0794,-0.05292 c -0.0265,0 -0.0529,0.02646 -0.0529,0.07937 0,0.07937 0.13229,0.238125 0.39688,0.47625 0.44979,0.396875 1.00541,0.582084 1.71979,0.582084 0.29104,0 0.60854,-0.05292 0.92604,-0.132292 0.66146,-0.211667 1.32292,-0.47625 1.905,-0.846667 0.92604,-0.582083 1.48167,-0.873125 1.71979,-0.873125 0.18521,0 0.29104,0.105834 0.3175,0.3175 0,0.15875 -0.0794,0.291042 -0.23812,0.396875 -0.15875,0.105834 -0.3175,0.185209 -0.47625,0.211667 l -0.52917,0.264583 c -0.50271,0.238125 -1.08479,0.608542 -1.71979,1.164167 -1.13771,0.846667 -1.98438,1.27 -2.46063,1.27 -0.18521,0 -0.37041,-0.05292 -0.58208,-0.132292 -0.34396,-0.211666 -0.89958,-0.846666 -1.64042,-1.957916 -0.29104,-0.370417 -0.50271,-0.582084 -0.60854,-0.582084 -0.0265,0 -0.0529,0.07937 -0.0529,0.264584 0,0.687916 -0.39687,1.640416 -1.19062,2.910416 -0.23813,0.449792 -0.42333,0.9525 -0.52917,1.561042 -0.0265,0.185208 -0.0529,0.343958 -0.0529,0.529167 0,0.343958 0.13229,0.740833 0.34395,1.137708 -0.42333,0.07937 -0.97895,0.873125 -1.69333,2.328333 -0.71437,1.481667 -1.11125,2.725209 -1.19062,3.704167 -0.0265,0.185208 -0.0529,0.502708 -0.0529,0.978958 v 1.190625 c 0,0.635 -0.0529,1.031875 -0.18521,1.164167 -0.0529,0.264583 -0.15875,0.396875 -0.3175,0.396875 -0.13229,0 -0.29104,-0.105833 -0.47625,-0.3175 -0.58208,-0.582083 -0.87312,-1.534583 -0.87312,-2.831042 0,-0.343958 0.0529,-0.714375 0.13229,-1.11125 v -0.3175 c 0,-0.105833 -0.0265,-0.185208 -0.0529,-0.185208 h -0.0529 c -0.3175,0.47625 -0.47625,1.084792 -0.47625,1.852083 0,0.79375 0.21167,1.666875 0.66146,2.645834 0.0794,0.238125 0.3175,0.47625 0.68792,0.740833 0.37042,0.238125 0.55562,0.423333 0.60854,0.555625 0.34396,0.370416 1.27,1.164166 2.72521,2.328336 1.45521,1.16416 2.27542,1.82562 2.46062,2.01083 0.29105,0.26458 0.4498,0.635 0.4498,1.11125 0,0.34396 -0.1323,0.68792 -0.37042,1.03188 -0.23813,0.34395 -0.635,0.52916 -1.16417,0.55562 0.0265,0.0794 0.0794,0.13229 0.13229,0.21167 l -0.5027,0.18521 c -0.0794,-0.15875 -0.18521,-0.3175 -0.29105,-0.4498 -2.0902,-3.33375 -3.54541,-5.42395 -4.36562,-6.32354 -0.82021,-0.873123 -1.53458,-1.322914 -2.16958,-1.322914 -0.26459,0 -0.52917,0.07937 -0.74084,0.264583 -0.0529,0.02646 -0.10583,0.05292 -0.13229,0.05292 -0.23812,0 -0.34396,-0.396875 -0.34396,-1.190625 0,-0.899583 0.29104,-1.852083 0.87313,-2.831041 0.26458,-0.396875 0.44979,-0.767292 0.58208,-1.11125 0.87313,-2.407708 1.37583,-3.730625 1.45521,-3.942292 0.55562,-1.375833 1.16417,-2.38125 1.79917,-3.01625 1.95791,-2.460625 3.01625,-4.180416 3.22791,-5.132916 -0.18521,-1.905 -0.29104,-4.60375 -0.34396,-8.043333 v -0.449779 c 0,-1.349375 0.21167,-2.566458 0.635,-3.598333 0.42334,-1.031875 1.32292,-1.931459 2.72521,-2.672292 0.68792,-0.343958 1.66688,-0.529167 3.01625,-0.529167 0.82021,0 1.66688,0.105834 2.54,0.343959 0.87313,0.238125 1.61396,0.608541 2.2225,1.11125 1.00542,0.687916 1.82563,1.719791 2.434169,3.148541 0.529172,1.217084 0.79375,2.354792 0.79375,3.413125 l -0.0529,1.11125 c 0,4.101042 1.42875,7.646458 4.28625,10.662708 0.899589,1.031875 1.772709,2.460625 2.566459,4.28625 1.03188,2.831042 1.613961,5.053542 1.613961,6.879167 z m -8.83708,-15.028333 c 0.0794,-0.105834 0.132291,-0.238125 0.132291,-0.423334 0,-0.3175 -0.15875,-0.502708 -0.502711,-0.582083 -0.34396,-0.05292 -0.60854,-0.211667 -0.82021,-0.47625 -0.13229,-0.185208 -0.21167,-0.291042 -0.26458,-0.343958 l -0.13229,0.07937 c -0.0529,0.105833 -0.0794,0.238125 -0.0794,0.396875 0,0.185208 0.10583,0.47625 0.34396,0.873125 0.39687,0.423333 0.76729,0.608541 1.05833,0.608541 0.0794,0 0.15875,-0.05292 0.264591,-0.132291 z m -3.09563,-12.22375 c 0,-0.02646 -0.0265,-0.07937 -0.0794,-0.105833 -0.0529,-0.05292 -0.1323,-0.105834 -0.23813,-0.15875 -0.10583,-0.05292 -0.15875,-0.105834 -0.21167,-0.185209 -0.29104,-0.264583 -0.52916,-0.396875 -0.66145,-0.396875 -0.23813,0 -0.34396,0.15875 -0.34396,0.449792 l 0.0529,0.264583 c 0,0.07937 -0.0529,0.211667 -0.1852,0.396875 -0.10584,0.185209 -0.18521,0.291042 -0.18521,0.3175 0,0.02646 0.0265,0.07938 0.0794,0.132292 0.0529,0.05292 0.10584,0.07937 0.13229,0.07937 0.0265,0 0.0529,-0.02646 0.0794,-0.07937 0.0265,-0.05292 0.10583,-0.105833 0.23812,-0.211667 0.1323,-0.105833 0.26459,-0.211666 0.42334,-0.291041 0.0265,0 0.10583,0 0.23812,0 0.13229,0 0.26459,-0.02646 0.37042,-0.05292 0.13229,-0.02646 0.21167,-0.07937 0.29104,-0.15875 z m -1.50812,6.19125 0.0529,-0.05292 c 0,-0.238125 -0.0265,-0.423333 -0.10583,-0.555625 -0.0794,-0.132292 -0.15875,-0.238125 -0.26458,-0.291042 -0.10584,-0.05292 -0.18521,-0.07937 -0.23813,-0.07937 -0.21167,0 -0.3175,0.02646 -0.3175,0.07937 0,0.02646 0.0265,0.05292 0.0794,0.07937 0.3175,0.07937 0.52916,0.370417 0.60854,0.846667 v 0.05292 c 0.0529,0 0.13229,-0.02646 0.18521,-0.07937 z m -6.32355,0.423333 c 0.0794,0 0.1323,-0.15875 0.1323,-0.47625 0,-0.15875 -0.0529,-0.3175 -0.18521,-0.502708 -0.10584,-0.185209 -0.21167,-0.291042 -0.26459,-0.291042 -0.15875,0 -0.21166,0.05292 -0.21166,0.185208 0.0265,0.105834 0.0794,0.185209 0.18521,0.185209 0.0794,0 0.13229,0.05292 0.13229,0.185208 v 0.396875 c 0,0.211667 0.0794,0.3175 0.21166,0.3175 z m -5.82083,12.514792 c 0.0265,-0.05292 0.0529,-0.105834 0.0529,-0.132292 0,-0.15875 0,-0.211667 -0.0529,-0.211667 -0.10583,0 -0.21167,0.132292 -0.29104,0.370417 -0.0794,0.238125 -0.21167,0.47625 -0.42333,0.687917 -0.0529,0.105833 -0.0794,0.211666 -0.0794,0.264583 0,0.05292 0.0265,0.07937 0.0794,0.07937 0.0794,0 0.1852,-0.05292 0.3175,-0.185208 0.21166,-0.211667 0.34395,-0.449792 0.39687,-0.714375 z"
       id="path825"
       style="stroke-width:0.26458332" />
    <path
       style="fill:#e6e6e6;stroke-width:0.26458332"
       inkscape:connector-curvature="0"
       class="st0"
       d="m 76.644091,97.670001 c 0.9525,0.423333 1.4023,0.767291 1.4023,1.058333 -0.502709,-0.449792 -1.190631,-0.661458 -2.0373,-0.661458 -0.211659,0 -0.39687,0.02646 -0.608539,0.05292 l -0.0265,-0.185209 c 0.502711,-0.15875 0.820211,-0.502708 0.9525,-1.084791 0.185211,-0.529167 0.264592,-1.084792 0.264592,-1.666875 0,-1.613959 -0.555631,-3.466043 -1.640422,-5.556252 -0.582078,-1.084791 -1.11125,-1.799166 -1.534578,-2.169583 0.661458,0.343958 1.296458,1.005417 1.931458,1.957917 0.635,0.9525 1.03187,1.852083 1.217081,2.672291 0.0265,0.105834 0.0794,0.370417 0.132289,0.740834 0.0529,0.370416 0.10583,0.582084 0.10583,0.635001 0.0265,0.05292 0.0529,0.238125 0.1323,0.529164 0.0794,0.291044 0.105831,0.47625 0.105831,0.582086 0,0.105833 0,0.211667 0,0.370417 0,0.15875 0,0.264583 0,0.343958 0,0.185208 0,0.3175 0,0.449792 0,0.105833 -0.0265,0.291041 -0.0794,0.502708 -0.0529,0.211667 -0.105828,0.449792 -0.185198,0.661458 -0.0529,0.238125 -0.105841,0.47625 -0.132302,0.767292 z"
       id="path831" />
    <path
       style="fill:#e6e6e6;stroke-width:0.26458332"
       inkscape:connector-curvature="0"
       class="st0"
       d="m 75.374091,97.961042 0.0265,0.185209 c -0.291042,0.05292 -0.55562,0.15875 -0.820211,0.291041 -0.582081,0.291042 -0.899581,0.740834 -0.926039,1.375834 -0.582081,0 -1.03187,0.15875 -1.322912,0.476254 -0.343958,0.44979 -0.529169,0.87312 -0.555629,1.29645 -0.0265,0.42334 -0.0265,0.66146 -0.0265,0.74084 0,0.0265 0,0.0265 0,0.0529 0,0.71437 0.0529,1.48166 0.18521,2.30187 0.158749,0.76729 0.211671,1.32292 0.211671,1.69334 0,0.47625 -0.132291,1.32291 -0.396881,2.56645 -0.21166,1.03188 -0.3175,1.7198 -0.34396,2.0373 -0.39687,0 -0.58208,-0.0794 -0.60854,-0.23813 -0.0265,-0.15875 -0.0529,-0.26458 -0.0529,-0.34396 0,-0.21166 0.0529,-0.47625 0.13229,-0.79375 0.42333,-1.24354 0.60854,-2.16958 0.60854,-2.77812 0,-0.71438 -0.10583,-1.05834 -0.34396,-1.05834 -0.21167,0 -0.47625,0.29105 -0.79375,0.84667 -0.76729,1.27 -2.30187,2.03729 -4.60375,2.35479 -0.50271,0 -0.9525,0 -1.37583,0 -1.37584,0 -2.40771,-0.34396 -3.04271,-1.03187 -0.0529,-0.0529 -0.13229,-0.0794 -0.26458,-0.0794 -0.23813,0 -0.42334,0.10583 -0.52917,0.3175 0,0.0265 0.0265,0.0794 0.0794,0.15875 0.0529,0.0794 0.1323,0.18521 0.23813,0.34396 0.10583,0.15875 0.21167,0.26458 0.3175,0.34395 0.29104,0.55563 0.44979,1.03188 0.44979,1.42875 0,0.47625 -0.21167,0.82021 -0.66146,1.05834 0,-0.82021 -0.0529,-1.45521 -0.18521,-1.87854 -0.10583,-0.42334 -0.37041,-0.89959 -0.74083,-1.42875 -0.26458,-0.39688 -0.50271,-0.68792 -0.635,-0.9525 -0.0529,-0.0794 -0.10583,-0.15875 -0.13229,-0.21167 0.52917,-0.0265 0.92604,-0.21167 1.16417,-0.55563 0.23812,-0.34395 0.37041,-0.68791 0.37041,-1.03187 0,-0.47625 -0.15875,-0.84667 -0.44979,-1.11125 -0.18521,-0.18521 -1.00542,-0.84667 -2.46062,-2.01083 -1.45521,-1.16417 -2.3548,-1.93146 -2.72521,-2.328338 -0.0265,-0.105833 -0.23813,-0.291042 -0.60854,-0.555625 -0.37042,-0.264583 -0.60855,-0.502708 -0.68792,-0.740833 -0.44979,-0.978959 -0.66146,-1.852084 -0.66146,-2.645834 0,-0.767291 0.15875,-1.375833 0.47625,-1.852083 h 0.0529 c 0.0265,0 0.0529,0.05292 0.0529,0.185208 v 0.3175 c -0.0794,0.396875 -0.13229,0.740834 -0.13229,1.11125 0,1.296459 0.29104,2.248959 0.87313,2.831042 0.21166,0.211667 0.37041,0.3175 0.47625,0.3175 0.15875,0 0.23812,-0.132292 0.3175,-0.396875 0.10583,-0.132292 0.18521,-0.502708 0.18521,-1.164167 V 96.2148 c 0,-0.47625 0,-0.79375 0.0529,-0.978958 0.0794,-1.005417 0.47625,-2.248958 1.19063,-3.704167 0.71437,-1.481666 1.27,-2.248958 1.69333,-2.328333 -0.23812,-0.423333 -0.34396,-0.79375 -0.34396,-1.137708 0,-0.185209 0.0265,-0.343959 0.0529,-0.529167 0.10583,-0.582083 0.29104,-1.11125 0.52917,-1.561042 0.79375,-1.27 1.19062,-2.248958 1.19062,-2.910416 0,-0.185209 0.0265,-0.264584 0.0529,-0.264584 0.10583,0 0.3175,0.185209 0.60854,0.582084 0.74083,1.084791 1.27,1.74625 1.64042,1.957916 0.21166,0.07937 0.39687,0.132292 0.58208,0.132292 0.50271,0 1.32292,-0.423333 2.46062,-1.27 0.66146,-0.529167 1.21709,-0.899583 1.7198,-1.164167 l 0.52916,-0.264583 c 0.13229,-0.02646 0.29104,-0.105833 0.47625,-0.211667 0.15875,-0.105833 0.23813,-0.238125 0.23813,-0.396875 -0.0265,-0.211666 -0.13229,-0.3175 -0.3175,-0.3175 -0.23813,0 -0.82021,0.291042 -1.71979,0.873125 -0.58209,0.343959 -1.21709,0.635 -1.905,0.846667 -0.3175,0.07938 -0.635,0.132292 -0.92605,0.132292 -0.71437,0 -1.27,-0.185209 -1.71979,-0.582084 -0.26458,-0.238125 -0.39687,-0.396875 -0.39687,-0.47625 0,-0.05292 0.0265,-0.07937 0.0529,-0.07937 l 0.0794,0.05292 c 0.58208,0.07937 1.05833,0.132292 1.42875,0.132292 0.68792,0 1.50812,-0.211667 2.51354,-0.661459 1.13771,-0.502708 2.03729,-0.873125 2.69875,-1.11125 0.26458,-0.05292 0.42333,-0.15875 0.50271,-0.3175 l 0.74083,0.05292 c -0.0265,0.07937 -0.0529,0.15875 -0.0794,0.264583 -0.10584,0.449792 -0.18521,0.820209 -0.18521,1.137709 0,0.635 0.34396,1.375833 1.05833,2.2225 0.55563,0.635 1.08479,2.037291 1.53459,4.153958 l 0.21166,0.132292 c 0.71438,0.714375 1.27,2.037291 1.719789,4.021666 0.211672,0.820208 0.3175,1.772708 0.3175,2.831042 0,1.058333 0.0794,1.772708 0.211672,2.143125 0.132289,0.370416 0.39688,0.555625 0.820208,0.555625 0.211672,-0.132292 0.39687,-0.15875 0.55562,-0.211667 z"
       id="path833" />
    <path
       style="fill:#e6e6e6;stroke-width:0.26458332"
       inkscape:connector-curvature="0"
       class="st0"
       d="m 72.622432,82.403542 c 0,0.185209 -0.0529,0.3175 -0.132291,0.423334 -0.0794,0.105833 -0.185209,0.15875 -0.264589,0.15875 -0.291041,0 -0.661461,-0.211667 -1.058331,-0.608542 -0.23813,-0.423333 -0.34396,-0.714375 -0.34396,-0.873125 0,-0.15875 0.0265,-0.291042 0.0794,-0.396875 l 0.13229,-0.07937 c 0.0529,0.05292 0.13229,0.185208 0.26458,0.343958 0.21167,0.264584 0.47625,0.423334 0.820211,0.47625 0.3175,0.02646 0.502709,0.211667 0.502709,0.555625 z"
       id="path837" />
    <path
       style="fill:#e6e6e6;stroke-width:0.26458332"
       inkscape:connector-curvature="0"
       class="st0"
       d="m 69.288681,70.497293 c 0.0529,0.05292 0.0794,0.07937 0.0794,0.105833 -0.0529,0.07937 -0.15875,0.15875 -0.26458,0.185208 -0.10583,0.02646 -0.23813,0.05292 -0.37042,0.05292 -0.13229,0 -0.21166,0 -0.23812,0 -0.15875,0.07937 -0.29104,0.185208 -0.42334,0.291042 -0.13229,0.105833 -0.21166,0.185208 -0.23812,0.211666 -0.0265,0.05292 -0.0529,0.07937 -0.0794,0.07937 -0.0264,0 -0.0794,-0.02646 -0.13229,-0.07937 -0.0529,-0.05292 -0.0794,-0.105833 -0.0794,-0.132291 0,-0.02646 0.0529,-0.132292 0.18521,-0.3175 0.10583,-0.185209 0.1852,-0.3175 0.1852,-0.396875 l -0.0529,-0.264584 c 0,-0.291041 0.13229,-0.449791 0.34396,-0.449791 0.13229,0 0.37041,0.132291 0.66145,0.396875 0.0265,0.05292 0.10584,0.105833 0.21167,0.185208 0.0794,0.02646 0.15875,0.07937 0.21167,0.132292 z"
       id="path839" />
    <path
       style="fill:#e6e6e6;stroke-width:0.26458332"
       inkscape:connector-curvature="0"
       class="st0"
       d="m 69.394511,77.350001 c 0,0.555625 -0.10583,0.873125 -0.3175,0.9525 -0.21167,0.07937 -0.39687,0.105833 -0.52917,0.105833 -0.26458,0 -0.39687,-0.132292 -0.39687,-0.396875 0,-0.05292 0.0529,-0.211667 0.13229,-0.449792 0.0529,-0.15875 0.0794,-0.3175 0.0794,-0.47625 0,-0.291041 -0.0529,-0.635 -0.18521,-1.005416 -0.23813,-0.502709 -0.635,-0.740834 -1.19063,-0.740834 -0.52916,0 -0.89958,0.211667 -1.08479,0.608542 -0.18521,0.396875 -0.29104,0.79375 -0.29104,1.164167 0,0.343958 0.0265,0.582083 0.10583,0.740833 l -0.76729,0.15875 c -0.0529,-0.132292 -0.15875,-0.185208 -0.29104,-0.211667 l 0.0265,-0.238125 c 0.0265,0.02646 0.0529,0.02646 0.0794,0.05292 0.0265,0 0.0529,-0.105833 0.0529,-0.343958 -0.0529,-0.3175 -0.0794,-0.608542 -0.0794,-0.873125 0,-1.613958 0.79375,-2.487083 2.38125,-2.592917 0.50271,0.05292 0.92605,0.264584 1.27,0.608542 0.66146,0.47625 1.00542,1.481666 1.00542,2.936875 z"
       id="path841" />
    <path
       style="fill:#e6e6e6;stroke-width:0.26458332"
       inkscape:connector-curvature="0"
       class="st0"
       d="m 69.182841,79.440209 c 0.0794,0.211667 0.10584,0.370417 0.10584,0.529167 0,0.185208 -0.0265,0.396875 -0.10584,0.635 l -0.74083,-0.05292 c 0.0265,-0.05292 0.0265,-0.105833 0.0265,-0.185208 0,-0.105834 -0.0529,-0.211667 -0.15875,-0.238125 -0.10583,-0.05292 -0.15875,-0.07937 -0.21167,-0.07937 -0.15875,0 -0.26458,0.07937 -0.34396,0.211666 -0.0794,0.15875 -0.26458,0.3175 -0.55562,0.47625 -0.29104,0.15875 -0.52917,0.291042 -0.74083,0.370417 -0.21167,0.07938 -0.52917,0.185208 -0.89959,0.264583 -0.39687,0.07937 -0.58208,0.15875 -0.60854,0.185209 -0.84667,0.264583 -1.66687,0.396875 -2.43417,0.396875 -0.84666,0 -1.40229,-0.185209 -1.64041,-0.555625 -0.23813,-0.370417 -0.60854,-0.714375 -1.11125,-1.031875 -0.13229,-0.02646 -0.18521,-0.105834 -0.18521,-0.264584 0,-0.291041 0.15875,-0.582083 0.44979,-0.873125 0,-0.02646 0.15875,-0.132291 0.47625,-0.3175 0.3175,-0.185208 0.55563,-0.370416 0.74083,-0.608541 0.15875,-0.211667 0.42334,-0.47625 0.82021,-0.767292 0.0265,-0.05292 0.0529,-0.238125 0.0794,-0.582083 0,-0.3175 -0.10584,-0.661459 -0.29104,-1.005417 -0.18521,-0.343958 -0.4498,-0.529167 -0.7673,-0.529167 -0.71437,0 -1.05833,0.423334 -1.05833,1.243542 0,0.343958 0.0794,0.661458 0.23813,0.926042 0.15875,0.264583 0.29104,0.396875 0.37041,0.396875 h 0.0529 c 0.13229,0 0.21167,0.02646 0.21167,0.05292 l -0.0529,0.185209 c -0.13229,0.238125 -0.3175,0.343958 -0.47625,0.343958 -0.13229,0 -0.23813,-0.132292 -0.37042,-0.370417 -0.13229,-0.238125 -0.23812,-0.555625 -0.3175,-0.899583 -0.0794,-0.343958 -0.10583,-0.635 -0.10583,-0.873125 0,-0.529167 0.15875,-1.084792 0.44979,-1.693333 0.26458,-0.502708 0.60854,-0.740833 1.05833,-0.740833 0.47625,0 0.84667,0.291041 1.13771,0.873125 0.29104,0.582083 0.44979,1.296458 0.44979,2.143124 v 0.264584 c 0.0529,0.07937 0.15875,0.132291 0.26459,0.132291 h 0.13229 c 0.15875,0 0.3175,0 0.47625,0 0.52917,0 0.87312,0.05292 1.11125,0.15875 l -0.0265,0.238125 c -0.0265,0 -0.0529,0 -0.10583,0 -0.0794,0 -0.23813,0.05292 -0.44979,0.185209 0.0264,0 0.0794,0 0.13229,0 0.10583,0 0.23812,0.05292 0.34396,0.132291 0.10583,0.07937 0.21166,0.132292 0.29104,0.132292 h 0.0529 c 0.0265,-0.05292 0.0529,-0.105833 0.0529,-0.185208 v -0.05292 l 0.76729,-0.15875 c 0.0529,0.105833 0.13229,0.185208 0.23813,0.211667 0.10583,0 0.42333,0.132291 0.9525,0.396875 0.52916,0.264583 0.89958,0.423333 1.16416,0.47625 0.68792,0.105833 1.03188,0.291041 1.11125,0.502708 z m -6.985,-1.322917 c 0.0794,-0.185208 0.21167,-0.264583 0.42334,-0.264583 -0.52917,0 -0.79375,0.105833 -0.79375,0.343958 0,0.105834 0.0529,0.185209 0.13229,0.185209 h 0.0529 c 0.0529,0 0.13229,-0.105834 0.1852,-0.264584 z"
       id="path843" />
    <path
       inkscape:connector-curvature="0"
       d="m 67.939301,76.741459 -0.0529,0.05292 c -0.0529,0.05292 -0.1323,0.07937 -0.18521,0.07937 v -0.05292 c -0.0794,-0.47625 -0.29104,-0.740833 -0.60854,-0.846667 -0.0529,-0.02646 -0.0794,-0.05292 -0.0794,-0.07937 0,-0.05292 0.10583,-0.07937 0.3175,-0.07937 0.0529,0 0.13229,0.02646 0.23813,0.07937 0.10583,0.05292 0.1852,0.15875 0.26458,0.291042 0.0529,0.132292 0.10583,0.3175 0.10583,0.555625 z"
       id="path845"
       style="stroke-width:0.26458332" />
    <path
       inkscape:connector-curvature="0"
       d="m 61.695141,76.741459 c 0,0.3175 -0.0529,0.47625 -0.1323,0.47625 -0.15875,0 -0.21166,-0.105833 -0.21166,-0.343958 v -0.396875 c 0,-0.105834 -0.0529,-0.185209 -0.13229,-0.185209 -0.0794,0 -0.15875,-0.05292 -0.18521,-0.185208 0,-0.132292 0.0794,-0.185208 0.21166,-0.185208 0.0529,0 0.15875,0.105833 0.26459,0.291041 0.13229,0.211667 0.18521,0.370417 0.18521,0.529167 z"
       id="path847"
       style="stroke-width:0.26458332" />
    <path
       inkscape:connector-curvature="0"
       d="m 60.954301,111.42833 0.3175,0.58209 c -0.66146,0.23812 -1.11125,0.47625 -1.40229,0.74083 -0.84667,0.71438 -1.69333,1.05833 -2.51354,1.05833 -0.50271,0 -1.48167,-0.26458 -2.93688,-0.79375 -1.4552,-0.52916 -2.75166,-0.92604 -3.86291,-1.19062 l -2.56646,-0.44979 c -0.97896,-0.18521 -1.64042,-0.39688 -1.95792,-0.60854 -0.34396,-0.23813 -0.50271,-0.58209 -0.50271,-1.05834 0,-0.3175 0.1323,-0.79375 0.34396,-1.42875 0.23813,-0.635 0.34396,-1.08479 0.34396,-1.34937 0,-0.26459 -0.0265,-0.58209 -0.0794,-0.9525 -0.0529,-0.37042 -0.1323,-0.68792 -0.21167,-1.00542 -0.0794,-0.29104 -0.13229,-0.58208 -0.13229,-0.87312 0,-0.0265 0,-0.1323 0,-0.3175 0,-0.18521 0.0794,-0.34396 0.26458,-0.47625 0.21167,-0.23813 0.68792,-0.37042 1.42875,-0.37042 0.74083,-0.0265 1.29646,-0.13229 1.61396,-0.37042 0.52917,-0.29104 0.89958,-0.58208 1.11125,-0.87312 0.21167,-0.29104 0.3175,-0.74084 0.3175,-1.32292 0.0794,0.34396 0.13229,0.68792 0.13229,0.97896 0,0.79375 -0.3175,1.40229 -0.97896,1.79917 -0.47625,0.26458 -1.03187,0.39687 -1.66687,0.39687 l -0.79375,-0.0529 c -0.66146,0 -0.97896,0.23813 -0.97896,0.74084 0,0.37041 0.15875,0.87312 0.47625,1.4552 0.23812,0.52917 0.34396,0.97896 0.34396,1.32292 0,0.37042 -0.15875,0.87313 -0.44979,1.50813 -0.23813,0.52916 -0.34396,0.92604 -0.34396,1.1377 0,0.3175 0.34396,0.58209 1.00541,0.79375 0.29105,0.0529 1.00542,0.21167 2.16959,0.4498 1.13771,0.23812 2.01083,0.42333 2.59291,0.52916 0.42334,0.15875 1.0848,0.34396 1.98438,0.60854 1.50812,0.47625 2.56646,0.71438 3.175,0.71438 h 0.34396 c 0.74083,-0.10583 1.29646,-0.37042 1.69333,-0.76729 0.39688,-0.39688 0.60854,-0.87313 0.60854,-1.42875 0,-0.42334 -0.0794,-0.87313 -0.21166,-1.40229 -0.15875,-0.50271 -0.29105,-0.9525 -0.47625,-1.27 -0.0794,-0.15875 -0.15875,-0.34396 -0.26459,-0.50271 l 0.50271,-0.18521 c 0.15875,0.23812 0.37042,0.55562 0.635,0.9525 0.37042,0.52917 0.60854,0.97896 0.74083,1.42875 0.1323,0.39687 0.18521,1.03187 0.18521,1.85208 z"
       id="path849"
       style="stroke-width:0.26458332" />
    <path
       inkscape:connector-curvature="0"
       d="m 55.768471,89.600209 c 0,0.02646 0,0.07937 -0.0529,0.132292 v 0.185208 c -0.0529,0.264583 -0.18521,0.502708 -0.39687,0.714375 -0.10584,0.105833 -0.21167,0.185208 -0.3175,0.185208 -0.0529,0 -0.0794,-0.02646 -0.0794,-0.07937 0,-0.05292 0.0265,-0.15875 0.0794,-0.264583 0.21166,-0.211667 0.34396,-0.423333 0.42333,-0.687917 0.0794,-0.238125 0.15875,-0.370416 0.29104,-0.370416 0.0529,-0.02646 0.0529,0.02646 0.0529,0.185208 z"
       id="path853"
       style="stroke-width:0.26458332" />
  </g>
</svg>
